<svg width="32" height="32" viewBox="0 0 32 32" fill="none" xmlns="http://www.w3.org/2000/svg">
<!-- Outer ring with dark fill for visibility -->
<circle cx="16" cy="16" r="16" fill="#0a0a0a"/>
<circle cx="16" cy="16" r="14.5" fill="none"/>
<!-- Outer orbit -->
<path d="M16 30C23.732 30 30 23.732 30 16C30 8.26801 23.732 2 16 2C8.26801 2 2 8.26801 2 16C2 23.732 8.26801 30 16 30Z" stroke="white" stroke-width="1.5" stroke-opacity="0.5"/>
<!-- Middle orbit -->
<path d="M16 24C20.4183 24 24 20.4183 24 16C24 11.5817 20.4183 8 16 8C11.5817 8 8 11.5817 8 16C8 20.4183 11.5817 24 16 24Z" stroke="white" stroke-width="1.2" stroke-opacity="0.7"/>
<!-- Center dot -->
<circle cx="16" cy="16" r="3" fill="white"/>
<!-- Top satellite dot -->
<circle cx="16" cy="4" r="2" fill="white"/>
<!-- Dashed line connecting satellite to center -->
<path d="M16 16V6" stroke="white" stroke-width="0.8" stroke-opacity="0.4" stroke-dasharray="2 2"/>
</svg>
