<svg width="216" height="34" viewBox="0 0 216 34" fill="none" xmlns="http://www.w3.org/2000/svg">
<path opacity="0.4" d="M16 32C24.8366 32 32 24.8366 32 16C32 7.16344 24.8366 0 16 0C7.16344 0 0 7.16344 0 16C0 24.8366 7.16344 32 16 32Z" stroke="white" stroke-width="1.2"/>
<path opacity="0.6" d="M16 26C21.5228 26 26 21.5228 26 16C26 10.4772 21.5228 6 16 6C10.4772 6 6 10.4772 6 16C6 21.5228 10.4772 26 16 26Z" stroke="white"/>
<path d="M16 19.2C17.7673 19.2 19.2 17.7673 19.2 16C19.2 14.2327 17.7673 12.8 16 12.8C14.2327 12.8 12.8 14.2327 12.8 16C12.8 17.7673 14.2327 19.2 16 19.2Z" fill="white"/>
<path d="M16 2C17.1046 2 18 1.10457 18 0C18 -1.10457 17.1046 -2 16 -2C14.8954 -2 14 -1.10457 14 0C14 1.10457 14.8954 2 16 2Z" fill="white"/>
<path opacity="0.3" d="M16 16V0" stroke="white" stroke-width="0.6" stroke-dasharray="1.6 1.6"/>
<path d="M63.2734 12.7188C63.1342 12.2348 62.9387 11.8073 62.6868 11.4361C62.4349 11.0582 62.1267 10.7401 61.7622 10.4815C61.4043 10.2164 60.9933 10.0142 60.5293 9.875C60.0719 9.7358 59.5648 9.6662 59.0078 9.6662C57.9671 9.6662 57.0523 9.9247 56.2637 10.4418C55.4816 10.9588 54.8717 11.7112 54.4341 12.6989C53.9966 13.6799 53.7778 14.8797 53.7778 16.2983C53.7778 17.7169 53.9933 18.9233 54.4242 19.9176C54.8551 20.9119 55.4651 21.6709 56.2539 22.1946C57.0424 22.7116 57.9738 22.9702 59.0476 22.9702C60.0221 22.9702 60.8541 22.7978 61.5435 22.4531C62.2396 22.1018 62.7699 21.608 63.1342 20.9716C63.5052 20.3352 63.6908 19.5829 63.6908 18.7145L64.5657 18.8438H59.3161V15.6023H67.8378V18.1676C67.8378 19.9574 67.46 21.4953 66.7043 22.7812C65.9487 24.0606 64.9081 25.048 63.5821 25.744C62.2562 26.434 60.7381 26.7788 59.0277 26.7788C57.1186 26.7788 55.4418 26.3578 53.9966 25.5161C52.5514 24.6678 51.4245 23.4647 50.6161 21.9062C49.8142 20.3419 49.4132 18.4858 49.4132 16.3381C49.4132 14.6875 49.6519 13.2159 50.1292 11.9233C50.6131 10.6241 51.2893 9.52373 52.1577 8.62216C53.026 7.72064 54.0369 7.03464 55.1903 6.56392C56.3437 6.09326 57.5931 5.85795 58.9389 5.85795C60.092 5.85795 61.1658 6.027 62.1601 6.36506C63.1543 6.69645 64.036 7.16711 64.8047 7.77699C65.58 8.38686 66.2131 9.11269 66.7035 9.95455C67.1941 10.7898 67.5089 11.7112 67.6481 12.7188H63.2734ZM70.8143 26.5V11.2273H74.9197V13.892H75.0789C75.3574 12.9441 75.825 12.2282 76.4812 11.7443C77.1375 11.2538 77.8932 11.0085 78.7483 11.0085C78.9604 11.0085 79.1891 11.0218 79.4343 11.0483C79.6796 11.0748 79.8952 11.1113 80.0808 11.1577V14.9162C79.8819 14.8565 79.6068 14.8035 79.2555 14.7571C78.9042 14.7107 78.5826 14.6875 78.2909 14.6875C77.6679 14.6875 77.1111 14.8234 76.6205 15.0952C76.1366 15.3603 75.7521 15.7315 75.467 16.2088C75.1886 16.6861 75.0491 17.2363 75.0491 17.8594V26.5H70.8143ZM86.0113 26.7887C85.0369 26.7887 84.1685 26.6197 83.406 26.2815C82.6437 25.9368 82.0404 25.4297 81.5962 24.7599C81.1586 24.0838 80.9398 23.242 80.9398 22.2344C80.9398 21.3859 81.0956 20.6733 81.4073 20.0966C81.7189 19.5199 82.1432 19.0559 82.6802 18.7045C83.2172 18.3532 83.8271 18.0881 84.5097 17.9091C85.1991 17.7301 85.9217 17.6042 86.6772 17.5312C87.5656 17.4384 88.2815 17.3523 88.8252 17.2727C89.3688 17.1866 89.7631 17.0606 90.0084 16.8949C90.2537 16.7292 90.3762 16.4839 90.3762 16.1591V16.0994C90.3762 15.4697 90.1775 14.9825 89.7796 14.6378C89.3887 14.2931 88.8316 14.1207 88.1089 14.1207C87.3466 14.1207 86.7401 14.2898 86.2893 14.6278C85.8386 14.9593 85.5401 15.3769 85.3943 15.8807L81.4768 15.5625C81.6757 14.6345 82.0667 13.8324 82.6503 13.1562C83.2336 12.4735 83.9859 11.9498 84.9074 11.5852C85.8352 11.214 86.9091 11.0284 88.1288 11.0284C88.978 11.0284 89.7897 11.1278 90.5651 11.3267C91.347 11.5256 92.0398 11.8338 92.643 12.2514C93.253 12.669 93.7335 13.206 94.0849 13.8622C94.4362 14.5118 94.6119 15.2907 94.6119 16.1989V26.5H90.5949V24.3821H90.4754C90.2302 24.8594 89.9022 25.2803 89.4911 25.6449C89.0802 26.0028 88.5864 26.285 88.0097 26.4904C87.433 26.6893 86.7666 26.7887 86.0113 26.7887ZM87.2244 23.8651C87.8474 23.8651 88.3977 23.7424 88.875 23.4972C89.3521 23.2453 89.7266 22.9072 89.9982 22.483C90.27 22.0587 90.4059 21.5781 90.4059 21.0412V19.4205C90.2734 19.5066 90.0909 19.5862 89.8589 19.6591C89.6335 19.7254 89.3786 19.7884 89.0936 19.848C88.8084 19.901 88.5232 19.9508 88.238 19.9972C87.9529 20.0369 87.6943 20.0734 87.4623 20.1065C86.9651 20.1795 86.5309 20.2955 86.1596 20.4545C85.7883 20.6136 85.5001 20.8291 85.2946 21.1009C85.0892 21.366 84.9866 21.6974 84.9866 22.0952C84.9866 22.6719 85.1955 23.1127 85.6133 23.4176C86.0377 23.7159 86.5741 23.8651 87.2244 23.8651ZM111.413 11.2273L106.074 26.5H101.301L95.9616 11.2273H100.437L103.608 22.1548H103.768L106.93 11.2273H111.413ZM113.403 26.5V11.2273H117.639V26.5H113.403ZM115.531 9.2585C114.901 9.2585 114.361 9.04972 113.91 8.63211C113.466 8.20785 113.244 7.70076 113.244 7.11078C113.244 6.52747 113.466 6.027 113.91 5.60938C114.361 5.18511 114.901 4.97301 115.531 4.97301C116.161 4.97301 116.698 5.18511 117.142 5.60938C117.593 6.027 117.818 6.52747 117.818 7.11078C117.818 7.70076 117.593 8.20785 117.142 8.63211C116.698 9.04972 116.161 9.2585 115.531 9.2585ZM128.979 11.2273V14.4091H119.782V11.2273H128.979ZM121.869 7.5682H126.105V21.8068C126.105 22.1979 126.165 22.5028 126.284 22.7216C126.403 22.9337 126.569 23.0829 126.781 23.169C127 23.2552 127.252 23.2983 127.537 23.2983C127.736 23.2983 127.935 23.2817 128.134 23.2486C128.332 23.2088 128.485 23.179 128.591 23.1591L129.257 26.311C129.045 26.3773 128.747 26.4536 128.363 26.5398C127.978 26.6326 127.511 26.6893 126.96 26.7092C125.939 26.7488 125.045 26.6129 124.276 26.3011C123.514 25.9895 122.92 25.5056 122.496 24.8494C122.072 24.1932 121.863 23.3646 121.869 22.3636V7.5682ZM134.176 32.2273C133.639 32.2273 133.135 32.1841 132.664 32.098C132.2 32.0183 131.816 31.9157 131.511 31.7898L132.466 28.6278C132.963 28.7803 133.41 28.8631 133.808 28.8763C134.212 28.8895 134.56 28.7969 134.852 28.598C135.15 28.3991 135.392 28.0611 135.578 27.5838L135.826 26.9375L130.348 11.2273H134.802L137.964 22.4432H138.123L141.315 11.2273H145.799L139.864 28.151C139.578 28.973 139.191 29.6889 138.7 30.2987C138.216 30.9152 137.603 31.3892 136.86 31.7202C136.118 32.0583 135.223 32.2273 134.176 32.2273ZM147.869 26.5V6.13636H152.175V22.9503H160.906V26.5H147.869ZM167.854 26.7887C166.88 26.7887 166.011 26.6197 165.249 26.2815C164.487 25.9368 163.883 25.4297 163.439 24.7599C163.001 24.0838 162.783 23.242 162.783 22.2344C162.783 21.3859 162.939 20.6733 163.25 20.0966C163.562 19.5199 163.986 19.0559 164.523 18.7045C165.06 18.3532 165.67 18.0881 166.353 17.9091C167.042 17.7301 167.765 17.6042 168.52 17.5312C169.409 17.4384 170.125 17.3523 170.668 17.2727C171.212 17.1866 171.606 17.0606 171.851 16.8949C172.097 16.7292 172.219 16.4839 172.219 16.1591V16.0994C172.219 15.4697 172.021 14.9825 171.623 14.6378C171.232 14.2931 170.675 14.1207 169.952 14.1207C169.19 14.1207 168.583 14.2898 168.133 14.6278C167.682 14.9593 167.383 15.3769 167.238 15.8807L163.32 15.5625C163.519 14.6345 163.91 13.8324 164.493 13.1562C165.077 12.4735 165.829 11.9498 166.751 11.5852C167.678 11.214 168.752 11.0284 169.972 11.0284C170.821 11.0284 171.633 11.1278 172.408 11.3267C173.19 11.5256 173.883 11.8338 174.486 12.2514C175.096 12.669 175.577 13.206 175.928 13.8622C176.279 14.5118 176.455 15.2907 176.455 16.1989V26.5H172.438V24.3821H172.318C172.073 24.8594 171.745 25.2803 171.334 25.6449C170.923 26.0028 170.43 26.285 169.853 26.4904C169.276 26.6893 168.61 26.7887 167.854 26.7887ZM169.067 23.8651C169.69 23.8651 170.241 23.7424 170.718 23.4972C171.195 23.2453 171.57 22.9072 171.841 22.483C172.113 22.0587 172.249 21.5781 172.249 21.0412V19.4205C172.117 19.5066 171.934 19.5862 171.702 19.6591C171.477 19.7254 171.222 19.7884 170.937 19.848C170.652 19.901 170.366 19.9508 170.081 19.9972C169.796 20.0369 169.538 20.0734 169.306 20.1065C168.808 20.1795 168.374 20.2955 168.003 20.4545C167.632 20.6136 167.344 20.8291 167.138 21.1009C166.932 21.366 166.83 21.6974 166.83 22.0952C166.83 22.6719 167.039 23.1127 167.456 23.4176C167.881 23.7159 168.418 23.8651 169.067 23.8651ZM179.644 26.5V6.13636H183.88V13.7926H184.009C184.195 13.3816 184.463 12.964 184.814 12.5398C185.172 12.1089 185.636 11.7509 186.206 11.4659C186.783 11.1742 187.499 11.0284 188.354 11.0284C189.468 11.0284 190.495 11.3201 191.436 11.9034C192.378 12.4801 193.13 13.3518 193.694 14.5185C194.257 15.6785 194.539 17.1335 194.539 18.8835C194.539 20.5871 194.264 22.0256 193.713 23.1989C193.17 24.3655 192.427 25.2504 191.486 25.8536C190.552 26.4503 189.504 26.7487 188.344 26.7487C187.522 26.7487 186.823 26.6129 186.246 26.3409C185.676 26.069 185.209 25.7276 184.844 25.3166C184.48 24.8991 184.201 24.4782 184.009 24.054H183.82V26.5H179.644ZM183.79 18.8636C183.79 19.7718 183.916 20.5639 184.168 21.2401C184.42 21.9162 184.784 22.4432 185.262 22.821C185.739 23.1922 186.319 23.3778 187.002 23.3778C187.691 23.3778 188.275 23.1889 188.752 22.8111C189.229 22.4266 189.59 21.8963 189.836 21.2202C190.088 20.5374 190.213 19.7519 190.213 18.8636C190.213 17.982 190.091 17.2064 189.846 16.5369C189.6 15.8674 189.239 15.3437 188.762 14.9659C188.284 14.5881 187.698 14.3991 187.002 14.3991C186.312 14.3991 185.729 14.5814 185.252 14.946C184.781 15.3106 184.42 15.8277 184.168 16.4972C183.916 17.1667 183.79 17.9555 183.79 18.8636ZM209.895 15.5824L206.017 15.821C205.951 15.4896 205.809 15.1913 205.59 14.9261C205.371 14.6544 205.083 14.4389 204.725 14.2798C204.374 14.1141 203.953 14.0312 203.462 14.0312C202.806 14.0312 202.252 14.1705 201.802 14.4489C201.351 14.7206 201.125 15.0852 201.125 15.5426C201.125 15.9072 201.271 16.2154 201.563 16.4673C201.855 16.7192 202.355 16.9214 203.064 17.0739L205.829 17.6307C207.313 17.9356 208.42 18.4261 209.15 19.1023C209.879 19.7784 210.243 20.6667 210.243 21.767C210.243 22.768 209.948 23.6463 209.358 24.402C208.775 25.158 207.973 25.748 206.952 26.1722C205.938 26.5895 204.768 26.7983 203.442 26.7983C201.42 26.7983 199.81 26.3773 198.61 25.5359C197.417 24.6877 196.717 23.5336 196.512 22.0753L200.678 21.8565C200.804 22.473 201.109 22.9437 201.593 23.2685C202.077 23.5866 202.696 23.7457 203.452 23.7457C204.195 23.7457 204.791 23.6032 205.242 23.3182C205.699 23.0265 205.931 22.652 205.938 22.1946C205.931 21.8101 205.769 21.4953 205.451 21.25C205.132 20.9981 204.642 20.8059 203.979 20.6733L201.334 20.1463C199.843 19.848 198.732 19.331 198.003 18.5952C197.281 17.8594 196.919 16.9214 196.919 15.7812C196.919 14.8002 197.185 13.955 197.715 13.2457C198.252 12.5365 199.004 11.9896 199.972 11.6051C200.946 11.2206 202.087 11.0284 203.392 11.0284C205.321 11.0284 206.839 11.4361 207.946 12.2514C209.06 13.0668 209.71 14.1771 209.895 15.5824Z" fill="white"/>
</svg>
